<?xml version="1.0" encoding="utf-8"?>
<!-- Generator: Adobe Illustrator 18.0.0, SVG Export Plug-In . SVG Version: 6.00 Build 0)  -->
<!DOCTYPE svg PUBLIC "-//W3C//DTD SVG 1.1//EN" "http://www.w3.org/Graphics/SVG/1.1/DTD/svg11.dtd">
<svg version="1.1" id="Layer_1" xmlns="http://www.w3.org/2000/svg" xmlns:xlink="http://www.w3.org/1999/xlink" x="0px" y="0px"
	 width="216.5px" height="250px" viewBox="0 0 216.5 250" enable-background="new 0 0 216.5 250" xml:space="preserve">
<g>
	<path fill="#231F20" d="M108.3,0L0,62.5v125L108.3,250l108.3-62.5v-125L108.3,0z M210.1,183.8l-101.8,58.8L6.4,183.8V66.2
		L108.3,7.4l101.8,58.8V183.8z M203.6,180.1l-95.4,55.1l-95.4-55.1V69.9l95.4-55.1l95.4,55.1V180.1z"/>
	<g>
		<g>
			<g>
				<path fill="#FFFFFF" d="M64.8,167.7l4,16.5l0.3,1.7l0.3-1.7l4.2-16.9H78l-6.5,22.9h-4.4l-4.5-16.9l-0.3-1.3l-0.3,1.3l-4.5,16.9
					H53l-6.5-22.9h4.4l4.2,16.9l0.3,1.7l0.3-1.7l4.1-16.5H64.8z"/>
				<path fill="#FFFFFF" d="M83,185.3l-1.7,5h-4.4l8.3-22.9h4.4l8.3,22.9h-4.7l-5.7-17.1l-0.3-1.2l-0.3,1.3l-2.7,8.2l-0.3,0.6
					l0.5-0.1h2.4c0.5,0,0.8,0.1,1.2,0.3c0.3,0.2,0.6,0.5,0.9,0.8c0.3,0.3,0.5,0.7,0.6,1c0.2,0.4,0.3,0.8,0.4,1.1H83z"/>
				<path fill="#FFFFFF" d="M107.4,179.6v10.7H103v-10.1l-7.9-12.8h4.9L107.4,179.6z M110.2,167.4h4.9l-6.7,11
					c-0.2-0.3-0.4-0.6-0.7-1c-0.2-0.4-0.4-0.9-0.6-1.4c-0.1-0.5-0.2-1-0.3-1.6c0-0.6,0.1-1.1,0.4-1.6L110.2,167.4z"/>
				<path fill="#FFFFFF" d="M130.3,173.9c0,1-0.3,2.1-0.8,3.2c-0.6,1.1-1.3,2.2-2.1,3.3s-1.7,2.2-2.6,3.2c-0.9,1-1.7,2-2.4,2.8
					l-0.5,0.6l0.7-0.1h8.2v3.5h-14.5v-1.9c0.3-0.7,0.8-1.5,1.3-2.2c0.6-0.8,1.3-1.6,1.9-2.4c0.7-0.8,1.5-1.7,2.2-2.6
					c0.8-0.8,1.4-1.7,2-2.6s1.1-1.6,1.5-2.4c0.4-0.8,0.6-1.5,0.6-2.2c0-1-0.3-1.8-1-2.3c-0.7-0.6-1.5-0.8-2.6-0.8
					c-0.5,0-1,0.1-1.7,0.2s-1.4,0.4-2.2,0.8l-1.1-2.9c1-0.5,2-0.8,2.9-1c0.9-0.2,1.7-0.3,2.4-0.3c1.3,0,2.3,0.1,3.3,0.4
					c1,0.3,1.8,0.7,2.5,1.2c0.7,0.6,1.3,1.2,1.6,1.9C130.1,172.1,130.3,172.9,130.3,173.9z"/>
				<path fill="#FFFFFF" d="M144.5,190.7c-1.9,0-3.7-0.3-5.2-0.9c-1.5-0.6-2.8-1.5-3.8-2.5s-1.8-2.4-2.4-3.8c-0.6-1.5-0.8-3-0.8-4.7
					s0.3-3.2,0.8-4.7s1.4-2.7,2.4-3.8s2.4-1.9,3.8-2.6c1.5-0.6,3.2-0.9,5.1-0.9c0.9,0,1.8,0.1,2.7,0.3c0.9,0.1,1.9,0.4,2.8,0.8
					l-1.1,2.9c-0.9-0.3-1.7-0.5-2.4-0.6c-0.6-0.1-1.3-0.1-2.1-0.1c-1.3,0-2.4,0.3-3.3,0.8c-0.9,0.5-1.7,1.1-2.3,1.9
					c-0.6,0.8-1,1.7-1.4,2.8c-0.3,1-0.5,2.1-0.5,3.2c0,1.1,0.1,2.2,0.5,3.2c0.3,1,0.8,1.9,1.4,2.8c0.6,0.8,1.4,1.5,2.3,1.9
					c0.9,0.5,2,0.7,3.3,0.7c1.4,0,2.8-0.3,4.4-1l1.2,2.8c-1,0.5-1.9,0.8-2.8,1.1C146.3,190.6,145.4,190.7,144.5,190.7z"/>
				<path fill="#FFFFFF" d="M160.9,190.7c-1.4,0-2.7-0.2-3.8-0.6c-1.1-0.4-2.1-1-2.9-1.7c-0.8-0.8-1.4-1.7-1.8-2.9
					c-0.4-1.2-0.6-2.5-0.6-4v-14.2h4.4V182c0,0.8,0.1,1.6,0.3,2.3c0.2,0.7,0.6,1.3,1,1.7c0.4,0.5,0.9,0.8,1.5,1.1
					c0.6,0.3,1.2,0.3,1.9,0.3c0.7,0,1.3-0.1,1.9-0.3c0.6-0.3,1.1-0.6,1.5-1.1c0.4-0.5,0.8-1,1-1.7c0.2-0.7,0.3-1.5,0.3-2.3v-14.7
					h4.4v14.2c0,1.4-0.2,2.6-0.6,3.8c-0.4,1.1-1,2.1-1.8,2.9c-0.8,0.8-1.7,1.5-2.9,1.9C163.6,190.5,162.3,190.7,160.9,190.7z"/>
			</g>
		</g>
		<path fill="#FFFFFF" d="M107.8,151.9c24.6,0,53.3-11,56.3-39.3c0.6-6.3-3.8-32-22.6-53.3L124.6,81H90.9L74.2,59.3
			c-18.8,21.3-23.3,47.1-22.6,53.3C54.4,140.9,83.2,151.9,107.8,151.9"/>
		<g>
			<path d="M109.8,133.4l4.4-6.3c0.8-1.2,0.4-2.8-0.8-3.5c-1.7-0.9-3.5-1.4-5.6-1.4c-2,0-3.9,0.5-5.6,1.4c-1.3,0.7-1.7,2.4-0.8,3.5
				l4.4,6.3C106.7,134.8,108.9,134.8,109.8,133.4z"/>
			<g>
				<path d="M118.2,141.4c-4.5,0-8.5-2.6-10.4-6.5c-1.9,3.9-5.9,6.5-10.4,6.5c-2.8,0-5.4-1-7.6-2.8c-0.4-0.3-0.5-1-0.1-1.4
					c0.3-0.4,1-0.5,1.4-0.1c1.7,1.5,4,2.3,6.3,2.3c4.7,0,8.6-3.3,9.4-7.9c0.1-0.5,0.5-0.8,1-0.8c0.5,0,0.9,0.3,1,0.8
					c0.8,4.6,4.8,7.9,9.4,7.9c2.4,0,4.6-0.8,6.3-2.2c0.4-0.3,1-0.3,1.4,0.1c0.3,0.4,0.3,1-0.1,1.4
					C123.7,140.5,121,141.4,118.2,141.4z"/>
			</g>
			<path d="M163,102.5c-1.3,0.3-2.7,0.7-4.2,1c-13.6,3.1-31.7,4.9-51,4.9s-37.4-1.7-51-4.9c-1.5-0.3-2.9-0.7-4.2-1
				c-0.2,1-0.4,2-0.6,3c2.8,0.8,5.8,1.4,8.9,2c0.6,8.2,8.6,14.8,18.5,14.9c8.5,0.1,15.8-4.7,18.1-11.2c3.5,0.1,6.9,0.1,10.3,0.1
				c2.8,0,5.7-0.1,8.5-0.1c2.4,6.5,9.6,11.3,18.1,11.1c9.7-0.1,17.6-6.5,18.4-14.6c3.9-0.7,7.5-1.5,10.8-2.4
				C163.5,104.5,163.3,103.6,163,102.5z"/>
		</g>
	</g>
</g>
</svg>
