<?xml version="1.0" encoding="iso-8859-1"?>
<!-- Generator: Adobe Illustrator 18.0.0, SVG Export Plug-In . SVG Version: 6.00 Build 0)  -->
<!DOCTYPE svg PUBLIC "-//W3C//DTD SVG 1.1//EN" "http://www.w3.org/Graphics/SVG/1.1/DTD/svg11.dtd">
<svg version="1.1" id="Layer_1" xmlns="http://www.w3.org/2000/svg" xmlns:xlink="http://www.w3.org/1999/xlink" x="0px" y="0px"
	 width="205.007px" height="99.02px" viewBox="0 0 205.007 99.02" style="enable-background:new 0 0 205.007 99.02;"
	 xml:space="preserve">
<g>
	<g>
		<path style="fill:#7F8C8D;" d="M49,82.014c0,0.684-0.155,1.006-0.838,1.006H6.082C5.398,83.02,5,82.698,5,82.014V15.182
			c0-0.684,0.398-1.161,1.082-1.161h42.08c0.684,0,0.838,0.478,0.838,1.161v15.08l5-4.056V7.426c0-4.101-2.975-7.405-7.076-7.405
			H7.319C3.218,0.02,0,3.325,0,7.426v84.16c0,4.101,3.218,7.435,7.319,7.435h39.605c4.101,0,7.076-3.334,7.076-7.435v-43.23
			l-5,5.714V82.014z M11.28,4.02h31.684c1.367,0,2.475,1.133,2.475,2.5c0,1.367-1.108,2.5-2.475,2.5H11.28
			c-1.367,0-2.475-1.133-2.475-2.5C8.805,5.153,9.913,4.02,11.28,4.02z M37,90.555c0,1.914-1.552,3.465-3.465,3.465H20.465
			c-1.914,0-3.465-1.552-3.465-3.465v-0.069c0-1.914,1.552-3.465,3.465-3.465h13.069c1.914,0,3.465,1.552,3.465,3.465V90.555z"/>
		<polygon style="fill:#7F8C8D;" points="65.291,29.678 61.155,25.75 29.105,52.01 18.973,38.983 10.702,47.461 29.105,71.446 		"/>
	</g>
	<g>
		<g>
			<path style="fill:#7F8C8D;" d="M81.623,52.299l-4.857-32.52l-0.282-2.182h-0.422v34.702h-7.039V0.563h9.291l4.505,23.651
				l0.352,2.745h0.141l0.352-2.745l4.505-23.651h9.291v51.736h-7.039V17.598h-0.422l-0.282,2.182l-4.857,32.52H81.623z"/>
			<path style="fill:#7F8C8D;" d="M122.869,41.67c-0.07,2.112-0.493,4.012-1.267,5.631c-0.634,1.408-1.619,2.745-3.027,3.801
				c-1.408,1.126-3.308,1.76-5.842,1.76c-2.534,0-4.505-0.634-5.913-1.76c-1.408-1.056-2.323-2.393-2.956-3.801
				c-0.774-1.619-1.197-3.519-1.267-5.631V11.192c0.07-2.041,0.493-3.942,1.267-5.561c0.634-1.408,1.549-2.815,2.956-3.871
				c1.408-1.056,3.379-1.76,5.913-1.76c2.534,0,4.435,0.704,5.842,1.76c1.408,1.056,2.393,2.464,3.027,3.871
				c0.774,1.619,1.197,3.52,1.267,5.561V41.67z M115.267,11.192c0-1.408-0.282-2.393-0.985-3.238
				c-0.352-0.352-0.915-0.563-1.549-0.563c-1.337,0-1.971,0.986-2.252,1.901c-0.211,0.563-0.282,1.197-0.282,1.901V41.67
				c0,1.478,0.352,2.464,1.056,3.238c0.352,0.352,0.845,0.563,1.478,0.563c1.337,0,1.971-0.845,2.252-1.901
				c0.211-0.493,0.282-1.126,0.282-1.901V11.192z"/>
			<path style="fill:#7F8C8D;" d="M128.005,52.299V0.563h6.687c4.505,0,8.024,0.845,10.347,3.027
				c2.323,2.182,3.519,5.561,3.519,10.699c0,2.464-0.211,4.293-0.985,5.983c-0.774,1.689-1.971,3.097-3.731,4.716
				c1.901,1.056,3.308,3.027,4.435,6.335c0.563,1.619,0.845,3.731,0.845,6.335c0,3.871-0.704,7.32-2.463,9.995
				c-1.76,2.675-4.786,4.434-9.291,4.646H128.005z M135.607,21.891c0.634,0,2.112,0.07,3.379-0.775
				c1.267-0.845,2.252-2.534,2.252-6.124c0-3.59-0.985-5.279-2.252-6.124c-1.267-0.845-2.745-0.774-3.379-0.774V21.891z
				 M135.607,44.768c0.634,0,2.112,0.141,3.379-0.774c1.267-0.915,2.252-2.957,2.252-7.18c0-4.224-0.985-6.265-2.252-7.18
				c-1.267-0.915-2.745-0.775-3.379-0.775V44.768z"/>
			<path style="fill:#7F8C8D;" d="M153.626,0.563h7.602v51.736h-7.602V0.563z"/>
			<path style="fill:#7F8C8D;" d="M166.857,0.563h7.602V45.26h10.066v7.039h-17.668V0.563z"/>
			<path style="fill:#7F8C8D;" d="M187.621,0.563h17.386v7.814h-9.784v13.585h7.039v8.306h-7.039v14.219h9.784v7.813h-17.386V0.563z
				"/>
		</g>
		<g>
			<path style="fill:#7F8C8D;" d="M83.037,64.986h-8.125V75.51h5.453v6.052h-5.453v17.449h-5.889V58.934h14.013V64.986z"/>
			<path style="fill:#7F8C8D;" d="M95.959,99.011l-3.053-16.903h-1.581v16.903h-5.889V58.934h5.889
				c7.034,0,10.033,3.98,10.033,11.56c0,3.98-1.036,7.579-3.272,9.106l3.762,19.412H95.959z M91.324,76.655
				c0.818,0,1.909-0.109,2.781-0.873c0.872-0.763,1.581-2.235,1.581-5.071s-0.709-4.362-1.581-5.125
				c-0.873-0.764-1.963-0.818-2.781-0.818V76.655z"/>
			<path style="fill:#7F8C8D;" d="M105.118,58.934h5.889v40.078h-5.889V58.934z"/>
			<path style="fill:#7F8C8D;" d="M115.368,58.934h13.468v6.053h-7.579V75.51h5.453v6.434h-5.453v11.014h7.579v6.052h-13.468V58.934
				z"/>
			<path style="fill:#7F8C8D;" d="M138.323,78.127l-0.491-1.854h-0.327v22.738h-5.398V58.934h5.235l5.725,20.884l0.491,1.854h0.327
				V58.934h5.398v40.078h-5.235L138.323,78.127z"/>
			<path style="fill:#7F8C8D;" d="M153.644,99.011V58.934h4.635c5.453,0,8.397,1.091,9.978,4.144
				c1.527,3.053,1.745,8.07,1.745,15.922s-0.218,12.814-1.745,15.867c-1.581,3.053-4.526,4.144-9.978,4.144H153.644z
				 M159.532,93.122c2.017,0,3.163-0.218,3.762-2.181c0.273-0.927,0.491-2.345,0.545-4.253c0.054-1.909,0.054-4.471,0.054-7.743
				c0-3.272,0-5.835-0.054-7.743c-0.055-1.854-0.273-3.272-0.545-4.253c-0.6-1.908-1.745-2.126-3.762-2.126V93.122z"/>
			<path style="fill:#7F8C8D;" d="M173.926,58.934h5.889v34.625h7.798v5.453h-13.687V58.934z"/>
			<path style="fill:#7F8C8D;" d="M195.846,71.748l0.164,0.382h0.109l0.163-0.382l2.945-12.814h5.78l-5.998,23.011v17.067h-5.889
				V81.944l-5.998-23.011h5.78L195.846,71.748z"/>
		</g>
	</g>
</g>
</svg>
