
<svg version="1.1" xmlns="http://www.w3.org/2000/svg" xmlns:xlink="http://www.w3.org/1999/xlink" width="75" height="75" viewBox="0 0 75 75">
<g >
</g>
<path d="M53.243 9.119c-12.161-12.159-31.946-12.159-44.11 0.003-12.175 12.159-12.177 31.959-0.009 44.123 12.169 12.159 31.958 12.159 44.119-0.001 12.161-12.163 12.161-31.964 0-44.125zM14.859 47.518c-9.005-9.005-9.002-23.664 0.001-32.659 9.004-9.004 23.654-9.004 32.655-0.005 8.999 9 8.996 23.644 0 32.662-9.002 8.976-23.65 9.008-32.656 0.002zM73.021 63.444l-13.388-13.357c-0.068-0.067-0.147-0.117-0.217-0.166-1.201 1.85-2.639 3.608-4.263 5.231-1.623 1.623-3.384 3.062-5.253 4.267 0.067 0.069 0.117 0.149 0.185 0.215l13.359 13.386c2.645 2.64 6.939 2.637 9.574 0 2.64-2.637 2.64-6.933 0.003-9.576z" fill="#3498DB"></path>
</svg>
