<?xml version="1.0" encoding="utf-8"?>
<!-- Generated by IcoMoon.io -->
<!DOCTYPE svg PUBLIC "-//W3C//DTD SVG 1.1//EN" "http://www.w3.org/Graphics/SVG/1.1/DTD/svg11.dtd">
<svg version="1.1" xmlns="http://www.w3.org/2000/svg" xmlns:xlink="http://www.w3.org/1999/xlink" width="79" height="75" viewBox="0 0 79 75">
<g id="icomoon-ignore">
</g>
<path d="M49.752 72.914c-1.371-1.010-1.516-2.524-1.516-2.524l-0.513-3.29h-16.379l-0.515 3.288c0 0-0.143 1.517-1.513 2.526-1.369 1.009-2.45 1.875-1.369 2.022 1.041 0.141 10.864 0.012 11.588 0 0.726 0.012 10.546 0.141 11.587 0 1.078-0.147-0.003-1.011-1.37-2.022zM27.43 41.146c-1.426 4.399-1.971 5.455-6.346 5.489-4.376 0.034 6.14 2.411 13.481-0.631 7.342-3.040-4.504-11.8-7.135-4.858zM35.563 38.645c2.123 1.713 1.611 1.837 3.827-0.917l26.39-28.753c2.215-2.755 2.292-6.376 0.169-8.088-2.124-1.713-5.64-0.869-7.856 1.884l-22.448 31.935c-2.217 2.753-2.205 2.227-0.082 3.939zM63.618 1.261c-3.057 1.807-3.44 3.448-3.44 3.448s-0.329-0.383-1.422-1.258c1.639-2.681 4.862-2.19 4.862-2.19zM75.904 11.678h-9.872l-4.359 4.75h12.651v38.003h-69.579v-38.003h40.475l3.341-4.75h-45.398c-1.747 0-3.163 1.418-3.163 3.167v45.92c0 1.749 1.416 3.167 3.163 3.167h72.741c1.747 0 3.163-1.418 3.163-3.167v-45.92c0-1.749-1.417-3.167-3.163-3.167z" fill="#3498DB"></path>
</svg>
