<?xml version="1.0" encoding="utf-8"?>
<!-- Generated by IcoMoon.io -->
<!DOCTYPE svg PUBLIC "-//W3C//DTD SVG 1.1//EN" "http://www.w3.org/Graphics/SVG/1.1/DTD/svg11.dtd">
<svg version="1.1" xmlns="http://www.w3.org/2000/svg" xmlns:xlink="http://www.w3.org/1999/xlink" width="86" height="75" viewBox="0 0 86 75">
<g >
</g>
<path d="M85.715 30.574c0-16.819-4.921-30.464-11.006-30.571 0.024-0.001 0.048-0.003 0.073-0.003h-6.943c0 0-16.306 12.249-39.779 17.055-0.716 3.791-1.174 8.31-1.174 13.519s0.458 9.727 1.174 13.518c23.473 4.806 39.779 17.056 39.779 17.056h6.943c-0.025 0-0.048-0.002-0.073-0.003 6.085-0.108 11.006-13.752 11.006-30.571zM72.391 56.522c-0.785 0-1.635-0.815-2.071-1.302-1.057-1.177-2.075-3.010-2.945-5.301-1.947-5.125-3.019-11.996-3.019-19.346s1.072-14.221 3.019-19.346c0.87-2.291 1.888-4.124 2.945-5.301 0.437-0.486 1.286-1.302 2.071-1.302s1.635 0.816 2.071 1.302c1.057 1.177 2.075 3.010 2.945 5.301 1.947 5.125 3.019 11.996 3.019 19.346s-1.072 14.221-3.019 19.346c-0.87 2.291-1.889 4.124-2.945 5.301-0.436 0.487-1.286 1.302-2.071 1.302zM21.078 30.574c0-4.349 0.319-8.574 0.925-12.48-3.965 0.549-7.445 0.864-11.747 0.864-5.613 0-5.613 0-5.613 0l-4.643 7.926v7.38l4.642 7.926c0 0 0 0 5.613 0 4.302 0 7.782 0.316 11.747 0.864-0.605-3.906-0.924-8.131-0.924-12.48zM30.816 48.396l-10.714-2.052 6.851 26.915c0.355 1.392 1.736 2.096 3.071 1.561l9.924-3.972c1.335-0.534 1.869-2.006 1.188-3.272l-10.32-19.18zM72.391 40.575c-0.303 0-0.63-0.314-0.799-0.502-0.408-0.454-0.8-1.16-1.135-2.043-0.75-1.975-1.164-4.623-1.164-7.456s0.413-5.481 1.164-7.456c0.335-0.883 0.728-1.589 1.135-2.043 0.169-0.187 0.496-0.502 0.799-0.502s0.63 0.314 0.798 0.502c0.408 0.454 0.8 1.16 1.135 2.043 0.75 1.975 1.164 4.623 1.164 7.456s-0.413 5.481-1.164 7.456c-0.335 0.883-0.728 1.589-1.135 2.043-0.168 0.187-0.496 0.502-0.798 0.502z" fill="#3498DB"></path>
</svg>
